<svg xmlns="http://www.w3.org/2000/svg" viewBox="0 0 100 100">
  <circle cx="50" cy="50" r="50" fill="#E8DFD8"/>
  <!-- Neck -->
  <rect x="42" y="62" width="16" height="16" rx="4" fill="#8D5524"/>
  <!-- Shirt -->
  <ellipse cx="50" cy="92" rx="30" ry="18" fill="#1C1814"/>
  <!-- Head -->
  <ellipse cx="50" cy="46" rx="19" ry="22" fill="#8D5524"/>
  <!-- Short hair -->
  <path d="M31 40 C31 24 69 24 69 40 C69 30 63 22 50 22 C37 22 31 30 31 40 Z" fill="#1A1108"/>
  <!-- Ears -->
  <ellipse cx="30" cy="47" rx="3.5" ry="5" fill="#8D5524"/>
  <ellipse cx="70" cy="47" rx="3.5" ry="5" fill="#8D5524"/>
  <!-- Eyes -->
  <ellipse cx="43" cy="44" rx="3" ry="3.5" fill="#fff"/>
  <ellipse cx="57" cy="44" rx="3" ry="3.5" fill="#fff"/>
  <circle cx="43.5" cy="44.5" r="2" fill="#1A1108"/>
  <circle cx="57.5" cy="44.5" r="2" fill="#1A1108"/>
  <!-- Eyebrows -->
  <path d="M39 39 Q43 37 47 39" stroke="#1A1108" stroke-width="1.8" fill="none" stroke-linecap="round"/>
  <path d="M53 39 Q57 37 61 39" stroke="#1A1108" stroke-width="1.8" fill="none" stroke-linecap="round"/>
  <!-- Nose -->
  <path d="M48 49 Q50 52 52 49" stroke="#663814" stroke-width="1.4" fill="none" stroke-linecap="round"/>
  <!-- Smile -->
  <path d="M43 56 Q50 61 57 56" stroke="#4A2508" stroke-width="1.8" fill="none" stroke-linecap="round"/>
  <path d="M45 56.5 Q50 59.5 55 56.5" stroke="#fff" stroke-width="1.8" fill="none" stroke-linecap="round"/>
</svg>
